<?xml version="1.0" encoding="UTF-8"?>
<svg xmlns="http://www.w3.org/2000/svg" viewBox="0 0 1024 1024">
  <circle cx="512" cy="512" r="512" fill="#000000"/>
  <path d="M694.3 372.5v91.1c-43.4 0-85.4-11.1-122.7-32.2-28.3-16-53.5-38.1-73.8-64.8v281.1c0 127.1-103.1 230.2-230.2 230.2S37.3 774.8 37.3 647.7s103.1-230.2 230.2-230.2c5.2 0 10.3.2 15.4.5v93.8c-5.1-.7-10.2-1-15.4-1-75.7 0-137.1 61.4-137.1 137.1s61.4 137.1 137.1 137.1 137.1-61.4 137.1-137.1V146h91.1c8.2 85.5 76.9 153.5 198.6 226.5z" fill="white"/>
  <path d="M694.3 372.5c-121.7-73-190.4-141-198.6-226.5h-91.1v501.7c0 75.7-61.4 137.1-137.1 137.1s-137.1-61.4-137.1-137.1 61.4-137.1 137.1-137.1c5.2 0 10.3.3 15.4 1v-93.8c-5.1-.3-10.2-.5-15.4-.5-127.1 0-230.2 103.1-230.2 230.2s103.1 230.2 230.2 230.2 230.2-103.1 230.2-230.2V366.6c20.3 26.7 45.5 48.8 73.8 64.8 37.3 21.1 79.3 32.2 122.7 32.2v-91.1z" fill="#69C9D0"/>
  <path d="M694.3 372.5v91.1c-43.4 0-85.4-11.1-122.7-32.2-28.3-16-53.5-38.1-73.8-64.8v281.1c0 127.1-103.1 230.2-230.2 230.2S37.3 774.8 37.3 647.7s103.1-230.2 230.2-230.2c5.2 0 10.3.2 15.4.5v93.8c-5.1-.7-10.2-1-15.4-1-75.7 0-137.1 61.4-137.1 137.1s61.4 137.1 137.1 137.1 137.1-61.4 137.1-137.1V146h91.1c8.2 85.5 76.9 153.5 198.6 226.5z" fill="#EE1D52"/>
</svg>
