<?xml version="1.0" encoding="UTF-8"?>
<svg xmlns="http://www.w3.org/2000/svg" viewBox="0 0 1024 1024">
  <circle cx="512" cy="512" r="512" fill="#25D366"/>
  <path fill-rule="evenodd" clip-rule="evenodd" d="M372.5 275.4c-32.2-32.2-74.9-49.9-120.5-49.9-93.9 0-170.4 76.5-170.4 170.4 0 32.2 9.1 63.5 26.3 90.7L80 663.3l180.7-27.3c26.3 14.2 55.3 21.3 85.2 21.3h.1c93.9 0 170.4-76.5 170.4-170.4 0-45.6-17.7-88.3-49.9-120.5zm-120.4 262.7h-.1c-25.4 0-50.3-6.8-72-19.7l-5.2-3.1-53.6 14.1 14.3-52.2-3.4-5.4c-14.3-22.7-21.8-48.9-21.8-75.9 0-78.6 64-142.6 142.7-142.6 38.1 0 73.9 14.9 100.8 41.8s41.8 62.7 41.8 100.8c0 78.6-64 142.6-142.7 142.6zm78.2-106.9c-4.3-2.2-25.4-12.5-29.3-14-3.9-1.4-6.8-2.2-9.6 2.2-2.8 4.3-11 14-13.5 16.8-2.5 2.9-5 3.2-9.3 1.1-25.4-12.7-42.1-22.6-58.9-51.3-4.4-7.6 4.4-7.1 12.7-23.6 1.4-2.8.7-5.3-.4-7.4-1.1-2.2-9.6-23.2-13.2-31.8-3.5-8.3-7-7.2-9.6-7.3-2.5-.1-5.3-.1-8.2-.1-2.8 0-7.4 1.1-11.3 5.3-3.9 4.3-14.9 14.6-14.9 35.6s15.3 41.3 17.4 44.2c2.2 2.8 30.9 47.2 74.9 66.2 27.8 12 38.7 13 52.6 11 8.5-1.3 25.4-10.4 29-20.4 3.6-10 3.6-18.6 2.5-20.4-1.1-1.7-4-2.8-8.3-5z" fill="white"/>
</svg>
